<svg xmlns="http://www.w3.org/2000/svg" viewBox="0 0 1200 90" preserveAspectRatio="none">
  <defs>
    <linearGradient id="ice" x1="0" y1="0" x2="0" y2="1">
      <stop stop-color="#ffffff" stop-opacity=".88"/>
      <stop offset=".65" stop-color="#d9edf7" stop-opacity=".64"/>
      <stop offset="1" stop-color="#7cabc5" stop-opacity="0"/>
    </linearGradient>
  </defs>
  <path d="M0 0h1200v20c-32 8-47 27-74 21-35-8-41 18-78 12-30-5-39-31-75-17-34 13-59 13-84-6-27-20-47 7-80 8-34 0-47-25-77-18-34 8-44 32-83 18-31-11-53-12-76 3-29 20-54 0-84-2-29-2-44 22-80 18-37-4-44-26-79-18-36 8-53 24-87 12-29-10-52-22-73-2C50 37 27 26 0 33Z" fill="url(#ice)"/>
  <g fill="#fff" opacity=".78">
    <circle cx="85" cy="14" r="5"/><circle cx="248" cy="10" r="4"/><circle cx="414" cy="17" r="5"/><circle cx="620" cy="11" r="4"/><circle cx="827" cy="16" r="5"/><circle cx="1045" cy="12" r="4"/>
  </g>
</svg>
